<?xml version="1.0" encoding="utf-8"?>
<!-- Generator: Adobe Illustrator 23.1.0, SVG Export Plug-In . SVG Version: 6.00 Build 0)  -->
<svg version="1.1" id="Layer_1" xmlns="http://www.w3.org/2000/svg" xmlns:xlink="http://www.w3.org/1999/xlink" x="0px" y="0px"
	 viewBox="0 0 120 127.5" style="enable-background:new 0 0 120 127.5;" xml:space="preserve">
<style type="text/css">
	.st0{fill:#0F9D58;}
	.st1{fill:#0E8C47;}
	.st2{display:none;}
	.st3{display:inline;fill:#757575;}
	.st4{display:inline;fill:#E6E9EE;}
	.st5{display:inline;fill:#CED5E0;}
	.st6{fill:#F5F6F6;}
	.st7{fill:#757575;}
	.st8{fill:#656565;}
	.st9{fill:#FFCD40;}
	.st10{display:none;fill:#A7A6A6;}
	.st11{display:none;fill:#273841;}
	.st12{display:none;fill:#CD584C;}
	.st13{display:none;fill:#E78343;}
	.st14{display:none;fill:#FFD465;}
	.st15{display:none;fill:#1D8159;}
	.st16{display:none;opacity:0.3;fill:#757575;enable-background:new    ;}
	.st17{font-family:'Montserrat-SemiBold';}
	.st18{font-size:15px;}
	.st19{fill:#FD9133;}
	.st20{display:inline;fill:#FFCD40;}
	.st21{display:inline;}
	.st22{fill:#BDBDBD;}
	.st23{fill:#212121;}
	.st24{display:none;fill:#FD9133;}
</style>
<g id="top_1_">
	<rect x="23.8" y="103.9" class="st0" width="67.2" height="13.7"/>
	<rect x="86.4" y="103.9" class="st1" width="4.6" height="13.7"/>
	<path class="st0" d="M86.4,103.9c0,0-5.7-15.1-5.7-33.4c0-14.5,3.2-31.1,4.1-43.3c0.8-10.9,1.6-18.4,1.6-18.4
		c0-3.8-2.5-7.4-6.3-7.4H35.7c-3.8,0-7.4,3.7-7.4,7.4c0,0-0.1,8.1,1.2,18.3c1.7,12.8,5,29.5,5,44.8c0,17.6-6.3,32-6.3,32L86.4,103.9
		L86.4,103.9z"/>
	<g class="st2">
		<path class="st3" d="M82.6,1.4h-50c-5.7,0-10.3,4.6-10.3,10.3v21.1c0,5.7,4.6,10.3,10.3,10.3h49.9c5.7,0,10.3-4.6,10.3-10.3V11.7
			C92.8,6,88.2,1.4,82.6,1.4z"/>
		<rect x="34" y="33.9" class="st4" width="46.5" height="29.5"/>
		<polygon class="st5" points="80.7,33.9 34,63.6 80.7,63.6 		"/>
	</g>
	<path d="M80.8,50.4h4.1c0.8,0,0.8,1,0.8,1.7v9.1c0,0.6,0,0.6-0.8,0.6h-4.1V50.4z"/>
	<path class="st1" d="M80.1,1.4h-3.4c3.8,0,6.3,3.7,6.3,7.4c0,0,0.1,7.4-0.5,18.2c-0.6,12-4.7,29-4.7,43.6c0,18.5,5.1,33.3,5.1,33.3
		h3.4c0,0-5.8-15.2-5.8-33.6c0-14.4,2.8-30.5,4.3-42.7c1.4-11,1.5-18.8,1.5-18.8C86.4,5,83.9,1.4,80.1,1.4z"/>
	<path class="st1" d="M81.9,28.2c0,4.4-3.5,7.4-8,7.4h-33c-4.4,0-8-2.9-8-7.4V14.5c0-4.4,2.4-8.6,6.8-8.6h34.2c4.4,0,8,4.1,8,8.6
		V28.2z"/>
	<path class="st6" d="M73.9,7.1H39.7c-3.4,0-5.7,4-5.7,7.4v4.6v4.6v4.6c0,3.8,3.7,6.3,7.4,6.3h33c3.8,0,6.3-2.5,6.3-6.3v-4.6v-4.6
		v-4.6C80.7,10.7,77.7,7.1,73.9,7.1z"/>
	<rect x="28.3" y="102.8" class="st1" width="58.1" height="1.1"/>
	<path class="st7" d="M94.4,95.4c-3.8,0-6.8-3-6.8-6.8V61.2c0-1-1-2.3-1.9-2.3c-1.3,0-2.2-1-2.2-2.3s0.8-2.3,2-2.3
		c3.5,0,6.6,3.3,6.6,6.8v27.3c0,1.3,1,2.3,2.3,2.3c1.3,0,2.3-1,2.3-2.3v-42c0-1.3,1-2.3,2.3-2.3c1.3,0,2.3,1,2.3,2.3v42.1
		C101.2,92.3,98.1,95.4,94.4,95.4z"/>
	<path class="st8" d="M89.8,61.2v27.3c0,1.3,1.3,2.3,2.6,2.3c0.5,0,0.6,0,0.9-0.3c-0.6-0.4-1.1-1.2-1.1-2V61.2c0-3.5-3-6.8-6.5-6.8
		c-0.4,0-0.8,0.1-1,0.2C87.4,55.3,89.8,58.1,89.8,61.2z"/>
	<path class="st8" d="M99,44.1c-0.5,0-0.8,0.1-1.2,0.4c0.6,0.4,0.9,1.1,0.9,1.9v42.1c0,3.4-2,6.3-5.1,6.8c0.4,0.1,0.6,0,0.9,0
		c3.5,0,6.4-3,6.4-6.8V46.3C101.1,45.2,100.3,44.1,99,44.1z"/>
	<path class="st9" d="M98.9,32.7c-1.3,0-2.3-1-2.3-2.3v-7.7l-2.9-1.6c-1.1-0.6-1.5-1.9-0.9-3c0.6-1.1,2-1.6,3-1l4.3,2.3
		c0.8,0.4,1,1.1,1,2v9.1C101.2,31.6,100.2,32.7,98.9,32.7z"/>
	<path d="M104.6,43.5c0,1.9-1.5,3.4-3.4,3.4h-4.6c-1.9,0-3.4-1.5-3.4-3.4V31c0-1.9,1.5-3.4,3.4-3.4h4.6c1.9,0,3.4,1.5,3.4,3.4V43.5z
		"/>
	<path class="st10" d="M109.2,28.2c0-0.4-0.2-0.6-0.6-0.6l0,0c-0.4,0-0.6,0.2-0.6,0.6v18.2c0,0.4,0.2,0.6,0.6,0.6l0,0
		c0.4,0,0.6-0.2,0.6-0.6V28.2z"/>
	<rect x="38.6" y="26.4" class="st11" width="38.7" height="1.1"/>
	<rect x="38.6" y="19.6" class="st12" width="4.6" height="6.8"/>
	<rect x="43.1" y="19.6" class="st13" width="11.4" height="6.8"/>
	<rect x="54.5" y="19.6" class="st14" width="13.7" height="6.8"/>
	<rect x="68.2" y="19.6" class="st15" width="9.1" height="6.8"/>
	<polygon class="st12" points="70.5,16.2 68.2,19.6 65.9,16.2 	"/>
	<rect x="-7" y="117.5" class="st16" width="136.8" height="28"/>
	<path d="M83.4,50.4h2c0.4,0,0.4,1,0.4,1.7v9.1c0,0.6,0,0.6-0.4,0.6h-2V50.4z"/>
</g>
<text transform="matrix(1 0 0 1 37.9394 21.2774)" class="st0 st17 st18">FUEL</text>
<text transform="matrix(1 0 0 1 37.9394 34.2774)" class="st0 st17 st18">DIET</text>
<g id="Capa_1" class="st2">
	<path class="st19" d="M80.8,65.4c0-1.8-1.5-3.3-3.2-3.3H37.7c-1.8,0-3.2,1.5-3.2,3.3V69c0,0.5,0.2,1,0.4,1.5
		c0.6-1.1,1.6-1.7,2.8-1.7h40c1.1,0,2.3,0.7,2.8,1.7c0.2-0.5,0.3-0.9,0.4-1.5L80.8,65.4z"/>
	<polygon class="st20" points="44.4,81 43.2,81.2 41.5,81.6 34.4,83.4 34.4,89.9 40.5,88.4 44.1,87.5 57.6,84.2 	"/>
	<path class="st20" d="M73.8,81.6l-1.7-0.4l-1.1-0.3l-13.2-3.3l-13.3-3.3l-4.9-1.2l-1.9-0.5c-1.7-0.4-2.9-2-3.1-3.8
		c0-0.1,0-0.2,0-0.3v7.3c0,1.6,1,2.9,2.4,3.2l4.1,1.1l2.4,0.7l1,0.2l13.2,3.3l13.4,3.3l3.7,0.9l6,1.6v-6.5L73.8,81.6z"/>
	<g class="st21">
		<path id="SVGCleanerId_1" class="st9" d="M80.8,69c-0.2,1.8-1.4,3.3-3.1,3.8l-1.8,0.4l-5,1.2l-13.3,3.3l13.2,3.3l1-0.2l2.4-0.6
			l4.1-1c1.5-0.3,2.4-1.7,2.4-3.2v-7.3C80.8,68.8,80.8,68.9,80.8,69z"/>
	</g>
	<g class="st21">
		<polygon class="st22" points="34.4,83.4 34.4,89.9 37.6,89.1 37.6,82.6 		"/>
		<polygon class="st22" points="80.8,83.4 77.6,82.6 77.6,89.1 80.8,89.9 		"/>
	</g>
	<g class="st21">
		<polygon class="st23" points="72.8,81.4 72.8,84.2 74.4,84.2 74.4,81.8 73.8,81.6 		"/>
		<polygon class="st23" points="70.4,83.4 70.4,80.8 68.8,80.4 68.8,83.4 		"/>
		<polygon class="st23" points="64.8,81.8 66.4,81.8 66.4,79.8 64.8,79.4 		"/>
		<polygon class="st23" points="60.8,81 62.4,81 62.4,78.8 60.8,78.4 		"/>
		<polygon class="st23" points="58.4,80.1 58.4,77.9 57.6,77.7 56.8,77.4 56.8,80.1 		"/>
		<polygon class="st23" points="54.4,79.3 54.4,76.9 52.8,76.5 52.8,79.3 		"/>
		<polygon class="st23" points="50.4,78.5 50.4,75.9 48.8,75.5 48.8,78.5 		"/>
		<polygon class="st23" points="46.4,76.9 46.4,74.9 44.8,74.5 44.8,76.9 		"/>
		<polygon class="st23" points="42.4,76 42.4,73.9 40.8,73.5 40.8,76 		"/>
		<path class="st23" d="M38.4,75.2v-2.3l-0.9-0.2c-0.2-0.1-0.5-0.2-0.7-0.2v2.8H38.4L38.4,75.2z"/>
		<polygon class="st23" points="42.4,84.2 42.4,81.4 41.5,81.6 40.8,81.8 40.8,84.2 		"/>
		<polygon class="st23" points="46.4,83.4 46.4,81.4 44.8,81 44.8,83.4 		"/>
		<polygon class="st23" points="66.4,77.7 66.4,75.5 64.8,75.9 64.8,77.7 		"/>
		<polygon class="st23" points="70.4,76.9 70.4,74.5 68.8,74.9 68.8,76.9 		"/>
		<polygon class="st23" points="74.4,76 74.4,73.5 72.8,73.9 72.8,76 		"/>
		<path class="st23" d="M78.4,75.2v-2.8c-0.2,0.1-0.5,0.2-0.7,0.2l-0.9,0.2v2.3L78.4,75.2L78.4,75.2z"/>
	</g>
</g>
<g id="Capa_1_1_">
	<path class="st24" d="M80.8,65.4c0-1.8-1.5-3.3-3.2-3.3H37.7c-1.8,0-3.2,1.5-3.2,3.3V69c0,0.5,0.2,1,0.4,1.5
		c0.6-1.1,1.6-1.7,2.8-1.7h40c1.1,0,2.3,0.7,2.8,1.7c0.2-0.5,0.3-0.9,0.4-1.5L80.8,65.4z"/>
	<polygon class="st9" points="44.2,78 42.9,78.3 41.3,78.8 34.1,81.2 34.1,89.9 40.2,87.9 43.9,86.7 57.6,82.3 	"/>
	<path class="st9" d="M74,78.8l-1.7-0.5l-1.2-0.4l-13.4-4.4l-13.5-4.4l-5-1.6l-1.9-0.7c-1.7-0.5-3-2.6-3.1-5c0-0.1,0-0.3,0-0.4v9.7
		c0,2.1,1,3.8,2.5,4.2l4.1,1.4l2.5,0.9l1,0.3l13.4,4.4l13.6,4.4l3.7,1.2l6.1,2.1v-8.7L74,78.8z"/>
	<g>
		<path id="SVGCleanerId_1_1_" class="st9" d="M81.1,62c-0.2,2.4-1.4,4.4-3.1,5l-1.8,0.5l-5,1.6l-13.5,4.4L71,77.9l1-0.3l2.5-0.8
			l4.1-1.3c1.5-0.4,2.5-2.3,2.5-4.2v-9.7C81.1,61.7,81.1,61.9,81.1,62z"/>
	</g>
	<g>
		<polygon class="st22" points="34.1,81.2 34.1,89.9 37.3,88.8 37.3,80.1 		"/>
		<polygon class="st22" points="81.1,81.2 77.9,80.1 77.9,88.8 81.1,89.9 		"/>
	</g>
	<g>
		<polygon class="st23" points="73,78.6 73,82.3 74.6,82.3 74.6,79.1 74,78.8 		"/>
		<polygon class="st23" points="70.6,81.2 70.6,77.7 68.9,77.2 68.9,81.2 		"/>
		<polygon class="st23" points="64.9,79.1 66.5,79.1 66.5,76.4 64.9,75.9 		"/>
		<polygon class="st23" points="60.8,78 62.5,78 62.5,75.1 60.8,74.6 		"/>
		<polygon class="st23" points="58.4,76.9 58.4,73.8 57.6,73.6 56.8,73.3 56.8,76.9 		"/>
		<polygon class="st23" points="54.4,75.8 54.4,72.5 52.7,72 52.7,75.8 		"/>
		<polygon class="st23" points="50.3,74.7 50.3,71.2 48.6,70.7 48.6,74.7 		"/>
		<polygon class="st23" points="46.2,72.5 46.2,69.9 44.6,69.4 44.6,72.5 		"/>
		<polygon class="st23" points="42.2,71.3 42.2,68.6 40.5,68.1 40.5,71.3 		"/>
		<path class="st23" d="M38.1,70.2v-3l-0.9-0.3c-0.2-0.1-0.5-0.2-0.7-0.3v3.7L38.1,70.2L38.1,70.2z"/>
		<polygon class="st23" points="42.2,82.3 42.2,78.6 41.3,78.8 40.5,79.1 40.5,82.3 		"/>
		<polygon class="st23" points="46.2,81.2 46.2,78.6 44.6,78.1 44.6,81.2 		"/>
		<polygon class="st23" points="66.5,73.6 66.5,70.7 64.9,71.2 64.9,73.6 		"/>
		<polygon class="st23" points="70.6,72.5 70.6,69.4 68.9,69.9 68.9,72.5 		"/>
		<polygon class="st23" points="74.6,71.3 74.6,68.1 73,68.6 73,71.3 		"/>
		<path class="st23" d="M78.7,70.2v-3.7c-0.2,0.1-0.5,0.2-0.7,0.3L77,67.2v3L78.7,70.2L78.7,70.2z"/>
	</g>
</g>
</svg>
